<svg width="27" height="24" viewBox="0 0 27 24" fill="none" xmlns="http://www.w3.org/2000/svg">
<rect x="0.604492" width="25.4788" height="24" rx="5" fill="#8165FF"/>
<path d="M7.2832 8.95898V18.0521C7.2832 18.5856 7.59499 19.0698 8.08063 19.2906C8.98144 19.7002 10.0042 19.0416 10.0042 18.0521V10.7622C10.0042 8.50801 11.8316 6.68063 14.0858 6.68063C15.6937 6.68063 17.0542 8.41259 17.0542 10.392C17.0542 11.1303 16.819 11.708 16.4577 12.1636C15.5928 13.2542 14.0858 12.1829 14.0858 10.791V10.2396C14.0858 9.73388 13.7779 9.27911 13.3084 9.09125C12.496 8.7662 11.6121 9.36453 11.6121 10.2396V13.2814C11.6121 15.1018 13.0878 16.5775 14.9082 16.5775H15.2954C15.5602 16.5775 15.826 16.5555 16.0755 16.4671C17.4628 15.9752 19.6516 14.2679 19.6516 10.392C19.6516 6.74893 17.718 4.9009 16.3337 4.21151C15.9239 4.00745 15.4616 3.95898 15.0038 3.95898H12.2832C9.52178 3.95898 7.2832 6.19756 7.2832 8.95898Z" stroke="white"/>
</svg>
