<svg width="20" height="20" viewBox="0 0 20 20" fill="none" xmlns="http://www.w3.org/2000/svg">
<path d="M1.11111 0C0.496667 0 0 0.497778 0 1.11111V18.8889C0 19.5022 0.496667 20 1.11111 20H8.88889C9.50333 20 10 19.5022 10 18.8889V15V5V1.11111C10 0.497778 9.50333 0 8.88889 0H1.11111ZM10 5C10 7.75667 12.2433 10 15 10C17.7567 10 20 7.75667 20 5C20 2.24333 17.7567 0 15 0C12.2433 0 10 2.24333 10 5ZM15 10C12.2433 10 10 12.2433 10 15C10 17.7567 12.2433 20 15 20C17.7567 20 20 17.7567 20 15C20 12.2433 17.7567 10 15 10Z" fill="black"/>
</svg>
